<svg xmlns="http://www.w3.org/2000/svg" width="200" height="124.078" viewBox="0 0 200 124.078"><path d="M9.25,10.188c3.128-.124,10.757-.374,14.635-1.251-.126,1.627-.376,6.63-.376,16.136v4.253c3.5-2.878,6.38-4.379,9.882-4.379A10.3,10.3,0,0,1,42.4,29.576a19.625,19.625,0,0,1,2.5,10.132c0,11.631-5.5,18.262-16.637,18.262a20.984,20.984,0,0,1-8.756-2.127c-1.5.5-3.5,1.5-5.5,2.127l-.626-.376c.126-3.378.126-9.756.126-18.388V23.2c0-4-.126-6.754-.25-9.13-.126-1.627-.5-1.877-4.253-1.877Zm19.012,45.4c4.253,0,6.254-5.129,6.254-14.635A20.658,20.658,0,0,0,32.765,31.7a4.51,4.51,0,0,0-4-2.5,5.76,5.76,0,0,0-4.629,2.752c-.624.877-.875,1.627-.875,11.507,0,8.131.376,8.381.877,9.382A4.5,4.5,0,0,0,28.262,55.593ZM66.786,57.22c-2.628,0-5.253-.252-9.382-.252-4.377,0-6.5.252-8.629.252V55.092c3.5-.126,4-.75,4.129-2.127.124-1.5.25-3.876.25-7.755V37.2c0-3.252,0-5.878-.126-7s-.626-1.5-3.878-1.375V26.7c4.379-.374,9.632-.5,13.885-1.375-.126,1.627-.25,4.629-.25,11.507v8.631c0,4,.126,5.754.25,7.5s.626,2,3.752,2.376ZM57.4,10.814c3.254,0,5.129,1.877,5.129,5.253,0,2.878-2.127,4.879-5.379,4.879a4.662,4.662,0,0,1-4.877-4.879,4.958,4.958,0,0,1,5.129-5.253Zm12.634-.626A92.231,92.231,0,0,0,83.673,8.937q-.254,7.752-.252,15.51V40.083c2.377-.626,7.5-6.88,9.506-10.507.376-.75.376-1.127-.624-1.127l-2.752-.25V26.074c4.629.126,9.382-.126,14.135-.376v2.127c-3.5.376-4.879.626-6.256,1.751a58.525,58.525,0,0,0-6,6.254c1.5,3.128,7.757,14.635,10.132,17.761a3.487,3.487,0,0,0,3.128,1.5l1.749.126-.124,2.125a92.72,92.72,0,0,0-13.885.75c-1.5-3.5-6-12.008-7.379-14.635-.75-1.375-1.127-1.875-1.627-1.751,0,5.129-.124,7.631.126,11.257.126,1.627.5,2.127,3.878,2.251v2.127c-2.378,0-4.879-.25-9.006-.25-4.879,0-7,.25-8.882.25V55.216c3.252-.124,3.752-.748,3.878-2,.124-1.5.248-4.753.248-11.257V25.824c0-5.129,0-9.006-.124-12.258q0-1.126-1.5-1.127H69.912ZM39.9,88.113c-2.127,6.754-6.254,10.006-13.134,10.006-5.88,0-9.632-1.627-12.258-5.129-2-2.626-3-6.5-3-10.881,0-9.632,5.88-17.011,16.637-17.011,6.5,0,11.257,3,11.257,7.881,0,3.376-2.752,4.751-5,4.751a5.675,5.675,0,0,1-2.5-.624,1.954,1.954,0,0,1-.877-2.251,18.842,18.842,0,0,0,.376-2.628c0-3.126-1.127-4.627-3.5-4.627-3.878,0-5.88,5.63-5.88,13.384,0,3.126.376,6.628,1.5,8.754,1.251,2.878,3.252,4.5,6.254,4.5,3.752,0,6.13-2.125,7.881-7Zm7.129-9.13a69.881,69.881,0,0,0-.376-8.758,1.318,1.318,0,0,0-1.5-1.249H42.9V66.85c3.752-.126,8.882-.376,12.508-1.5l.376.25c.25,1.5.5,5.129.626,7.381h.248C58.283,68.6,60.533,65.1,65.161,65.1a4.714,4.714,0,0,1,4.629,5c0,4.129-3.128,5.379-4.379,5.379a2.422,2.422,0,0,1-2.5-1.253c-.624-1.375-1-2.125-2.249-2.125-1.377,0-2.127,1.251-3,3.252a13.28,13.28,0,0,0-.626,4.5c0,7.131,0,11.133.126,12.884s.748,2.249,5.752,2.376l-.124,2.127c-3.5-.126-6.63-.252-10.256-.252-3.752,0-6.5.126-9.632.252l.374-2.127c3-.126,3.752-.5,3.752-1.751.126-1.751.25-5.129.25-9.006V78.981h-.25Zm42.4-5.754c0-3.754-1.253-5.756-3.754-5.756-2.876,0-4.251,1.627-4.251,4.629a13.962,13.962,0,0,0,.248,2.378,1.782,1.782,0,0,1-.748,1.875,6.836,6.836,0,0,1-3.5,1.127c-2.378,0-4.379-1.129-4.379-3.878,0-4,5.88-8.505,14.135-8.505,6.752,0,9.754,2.752,10.881,4.5a6.285,6.285,0,0,1,1,3.378V91.365c0,2.127.626,2.628,1.377,2.628,1,0,2.125-1.627,2.626-4.379l2.127,1c-1.127,5.379-4.379,7.631-8.882,7.631-3.878,0-6-1.627-6.63-4.879-3,3-6.128,4.879-9.38,4.879-5.253,0-8.756-3.5-8.756-9.258,0-3.5,1.5-5.5,4.129-6.628,4.251-1.877,10.631-3.752,13.757-6V73.228ZM81.546,87.112c0,2.752,1.127,5.754,3.878,5.754,2,0,2.876-1.251,3.5-2.5a9.292,9.292,0,0,0,.374-3V78.857c-1.377.877-3.5,1.877-5.129,2.878C82.671,82.736,81.546,83.984,81.546,87.112Zm24.766-20.887,4,.124v-2c.126-5.253,1.377-9.132,4.129-11.884a12.361,12.361,0,0,1,9.13-3.752c5.129,0,7.881,2.5,7.881,5.754,0,2.378-2,4-4.755,4a2.363,2.363,0,0,1-2.5-2.5c0-2.626-.374-4.751-2.249-4.751-1.253,0-2,1.125-2.253,3.252-.248,2,.126,5.754.376,11.631h6.13l-.376,2.5-5.754.376c-.126,2.375-.126,6.5-.126,11.381,0,4.629,0,8.756.126,12.008.126,1.627.376,2.251,1.751,2.378a33.349,33.349,0,0,0,3.378.248l-.254,2.127c-2.375,0-6.128-.25-9.38-.25-3.378,0-7.381.25-9.632.25l.126-2.127c3.252-.124,3.752-.5,3.878-1.875.248-2.127.248-5.379.248-9.756V68.851l-4.251-.25.374-2.377Z" transform="translate(9.011 8.948)" fill="#fec63e"/><path d="M89.89,43.133l-.252,2.375-7.629.5c0,2.628-.126,6.5-.126,11.757,0,5.5,0,9.256.252,11.507.124,1.627.748,2.378,2,2.378,2.626,0,4.251-2.878,4.877-5.5h1l.877,2.876c-1.5,3.628-5.255,6.13-10.759,6.13-3,0-5.628-1-6.878-2.5A6.891,6.891,0,0,1,72,68.149c0-5.129.25-16.637.25-22.14l-4-.376.25-2.376h3.752c.126-2.378.126-5.129.126-7.631A34.569,34.569,0,0,0,81.759,32l.75.126q-.328,5.56-.376,11.131H89.89v-.126Z" transform="translate(68.239 32.04)" fill="#fec63e"/><path d="M190,10.006V114.072H10V10.006ZM200,0H0V124.078H200Z" fill="#fec63e"/></svg>